/* XPM */
static char *f325f133a1d54057f0ae32da65ba3fd5DEQulpOM66LoB1Gj[] = {
/* columns rows colors chars-per-pixel */
"64 64 179 2 ",
"   c #3D4B49",
".  c #444746",
"X  c #444A47",
"o  c #454D4B",
"O  c #4B4E4C",
"+  c #524E4E",
"@  c #45534E",
"#  c #4C514E",
"$  c #54524F",
"%  c #554F50",
"&  c #465552",
"*  c #4E5351",
"=  c #465A55",
"-  c #4D5955",
";  c #455F59",
":  c #4D5D5A",
">  c #525554",
",  c #5B5555",
"<  c #535956",
"1  c #5A5B56",
"2  c #5A5758",
"3  c #555C59",
"4  c #5A5D5B",
"5  c #655B56",
"6  c #615C5B",
"7  c #695E5F",
"8  c #4C625C",
"9  c #5A6256",
"0  c #54625C",
"q  c #5B625D",
"w  c #546A5E",
"e  c #5D695D",
"r  c #62635E",
"t  c #6C635B",
"y  c #636A5F",
"u  c #665F60",
"i  c #695E60",
"p  c #4F6661",
"a  c #4F6964",
"s  c #546662",
"d  c #5C6462",
"f  c #556B62",
"g  c #5C6B64",
"h  c #5D666A",
"j  c #556D69",
"k  c #5D6D69",
"l  c #547265",
"z  c #5C7266",
"x  c #56736B",
"c  c #5D726C",
"v  c #5E796E",
"b  c #5D6B72",
"n  c #577670",
"m  c #5C7470",
"M  c #5F7C71",
"N  c #636562",
"B  c #6B6464",
"V  c #636B64",
"C  c #6A6C66",
"Z  c #646D6A",
"A  c #6A6D6A",
"S  c #706566",
"D  c #726C67",
"F  c #716769",
"G  c #726C6B",
"H  c #7A6C6C",
"J  c #647265",
"K  c #6B7366",
"L  c #64736C",
"P  c #6B746C",
"I  c #65796D",
"U  c #6C7A6D",
"Y  c #72746D",
"T  c #78746E",
"R  c #737A6E",
"E  c #616B72",
"W  c #6A6F70",
"Q  c #646D7B",
"!  c #6B6F79",
"~  c #657571",
"^  c #6C7571",
"/  c #657A72",
"(  c #6C7C73",
")  c #6C757C",
"_  c #657E79",
"`  c #6D7E7A",
"'  c #737572",
"]  c #797574",
"[  c #737C73",
"{  c #717E74",
"}  c #757E76",
"|  c #797B75",
" . c #7A7E75",
".. c #71767B",
"X. c #747D7A",
"o. c #7A7E7A",
"O. c #837577",
"+. c #807F7A",
"@. c #8B7D7F",
"#. c #6F8175",
"$. c #65807B",
"%. c #6D817B",
"&. c #728176",
"*. c #738176",
"=. c #7A8076",
"-. c #7A8277",
";. c #73817A",
":. c #74827C",
">. c #7A8179",
",. c #79817D",
"<. c #7B847C",
"1. c #76887F",
"2. c #7C887E",
"3. c #82847C",
"4. c #81897F",
"5. c #696E85",
"6. c #677182",
"7. c #6B7982",
"8. c #677189",
"9. c #6C778A",
"0. c #717986",
"q. c #6F7B9E",
"w. c #747D93",
"e. c #707D99",
"r. c #717EAB",
"t. c #4576D4",
"y. c #4878D4",
"u. c #507ED6",
"i. c #577ED8",
"p. c #5D7FD9",
"a. c #6C8581",
"s. c #748581",
"d. c #7A8480",
"f. c #7B8582",
"g. c #7F8784",
"h. c #758A84",
"j. c #7B8B84",
"k. c #77818D",
"l. c #738B88",
"z. c #7F8E89",
"x. c #7F9086",
"c. c #7D918A",
"v. c #778691",
"b. c #79839A",
"n. c #7B84A1",
"m. c #7482AF",
"M. c #7987AF",
"N. c #7483B1",
"B. c #5F88D9",
"V. c #6F86CB",
"C. c #7087C7",
"Z. c #798BC4",
"A. c #6082D6",
"S. c #6B8BD4",
"D. c #678CD9",
"F. c #708DD4",
"G. c #7E94D4",
"H. c #828783",
"J. c #8C8082",
"K. c #828B84",
"L. c #888C87",
"P. c #838D8A",
"I. c #898F8E",
"U. c #849187",
"Y. c #84948C",
"T. c #85968F",
"R. c #8B918E",
"E. c #848D9F",
"W. c #819691",
"Q. c #8D9391",
"!. c #829B96",
"~. c #929796",
"^. c #929997",
"/. c #969E9B",
"(. c #838DAA",
"). c #8593B4",
"_. c #8292C5",
"`. c #8B99C3",
"'. c #8195D0",
/* pixels */
"K ( U Y E X.s.f.Z 3 Z 4 3 >.} { U *.#.#.#.L Z 3 < - # < I I L :.:.X.P < h d 3 s.K.h.;.G { R K R <.=.| R d 3 C > N ( I #.#.I J I ",
"P P V C Z ^ ) 0.C 4 ) 4 < A { *.*.*.I J I L ^ 0 # - - - / ( ( ` f.o.W < d d < s.c.T.<.Y } *.R | =.=.=.=.q > d * 4 P I v / v J J ",
"' Z p ; q C 0 8 2 3 A q - c P f.1.*.#.I / I ( f - @ # - ~ _ X.d.f.f.^ > k d < s.Y.W.>.Y R -.<. .R R R K 1 < G ' ' C ~ / v f 0 V ",
"N q 0 : q A 3 - 4 q A 4 - w ^ 1.#.#.I / I I ^ 0 > @ - < g _ s.j.I.I.{ > V d 2 _ h.f.^ Z } H.K.>.[ R U J < > N N N d L / I 9 9 r ",
"r y C D K P C B N 4 ' N 3 J K U U { U ( ( P ~ 8 < R o.>.A L s.H.I.I.E > 4 6 > E ^ ' s 8 B Y Y d w g ( z < > 3 > < N J ( I y e 9 ",
"C C B Y Y | P G d 4 Z d 4 ( U { *.I P #./ Z Z 0 < < 3 3 k ~ f.I.^.Q.h - N Z 4 ( { ( d q V C C g - g :.( 0 > q > q { { X.<.*.R P ",
"y y 4 9 Y ' D G 4 4 N 4 9 R *.#.:.( ( ^ ( c k 3 3 q 3 3 Z ) ' o.H.H.d > N d 4 ` <.X.U { V R V J 0 g L ~ 9 3 q 4 4 P { ^ I K P y ",
"1 > & > 9 9 1 1 6 4 P q 3 I U #.h.h.#.` ` k s 3 3 d d P 4 6 4 , 2 2 @ > > N A 4 q d e q 1 Y < - = - L ' 4 , N 4 4 4 4 3 & # , , ",
"- # * < 3 3 < > 4 ! X.4 3 I #.:.s.h./ L L h 0 < 3 s d ^ 4 > > 3 3 > O > * < < > * > * > > [ > 4 d 0 I ( d < L L 4 < < 3 > < * O ",
"9 < 1 1 e N r r V Z Z 4 3 c L ~ L ~ s ; 4 8 = < 3 d 0 3 k Z ! o.o.) 4 O 3 L V 0 3 A @ - & N < 0 4 d f k d C N L k Z A Z 6 d C q ",
"< # 3 3 4 < < < > < 4 3 , < < < < > O O # O $ 3 s k 3 < L Z Z X.X.^ q > 3 k 3 < 1 Y < V N 4 # < > 4 < 3 Z C d 4 2 2 < < > < < > ",
"9 e e 9 0 d q 4 3 0 3 > - g k k d s 4 3 - 4 4 0 ~ g 3 < k P Z P ^ ^ d > 3 3 3 * 4 R # y ^ 4 e 9 < > < 0 3 s d 0 d Z W C 4 r N N ",
"R U #.U ( U L f Z ^ L 3 3 ( ` ( g 3 < - - B C < q 4 4 0 Z Z Z P ^ ~ 0 > < 3 > 0 q q 9 4 3 Z 1.#.e < e I ^ / / / X.:.f.H.] +.H.3.",
"U U #.U { I f 8 3 A P 3 3 ^ ^ 4 3 - * O O N V > 3 3 N ( } ~ ~ ^ ~ Z 4 > - 3 > 0 q e y < # y R U V > y I I L L L ^ ^ [ [ ] o.4.o.",
"X.{ U I L ( q E ) ~ g - 3 / c 3 4 ~ V V P C N A ^ { X.<.{ P Z Z d Z o.| o.4 * 1 y C y ^ ) Z K R y > y I K L ~ / L k ^ ( ' ' } } ",
"^ ( I L L g ) `.'.).Z & 3 %.c 2 Z j.X.' X.A N A Y ^ ( ( ~ ~ d A Z Z d 2 0 < * < 1 1 ' `.'.(.( U q 4 q V J k v ~ d ' d Z A Z Z L ",
"3 3 4 3 < O n.D.t.S.9.O 3 :.L > L U.} | >.<.R ] G B N u N 6 C ] T ^ d > 0 9 # 9 9 , (.D.t.F.7.R V q q > * # * - > Y < 3 3 3 3 < ",
"> > > < > > w.F.u.V.Q O 3 ( K > V :.P  .<.<. .D u i 6 2 4 1 i 6 N ~ q > 0 0 < 9 y q b.D.u.C.Q ( V 1 > < > - - < < ] 3 3 = * > > ",
"~ ~ ^ ^ ~ V d e.N.8.g # 3 ( k # d { P  .K.U.H.C 6 2 N N Z Z u 2 2 ' 0 2 < 1 * s 1 9 N n.r.5.N R r > < C Z Z m ^ L N Z ^ p s ! ~ ",
"h.a.a.s.` ~ f g g w l # - I g # g 1.P ] 4.K.H.P 2 4 N B B N 4 % 6 ] 4 < 4 1 # < < r 9 N N N G A 1 o 1 Z ^ h f m $.~ ) _ d ~ _ a.",
"l.a.a.a._ l x w 8 w e < < d 0 O 3 ( P ' [ :.4.A 6 , 6 > % , % % N H.A , r 9 # r 1 9 y y V K U P Y ' ^ g _ k s s Z ~ b Z b m a.l.",
"$._ _ / / L c f 8 8 R ] o.^ - O 8 g L k A T T B i i + + % . 5 B A L.' < r 9 # t 9 9 e y R R P Z N 4 V k / k f 3 d N Z k j k l.l.",
"l.a._ ~ ~ v c z z e 0 O o s : * - s g g R ' ] B F F % 6 i > B B C H.G > r 9 $ 5 9 y J J P R R R 9 > q m ~ ~ m d N s ~ ~ ^ X.c.c.",
"L s 8 3 - - 8 0 w 0 - o # - - - 1 P ( 1.X.<.<.C B u , 2 6 , 6 i B o.P 4 9 $ O $ # # # 9 4 9 q 4 4 E 3 - - 0 0 4 Y * < d u Z _ 7.",
"* * # o . o o # # # O O o o O - ' X.( P 1.K.o.G 6 , + + , O , 6 B P o.A > * O O . o O # o O o O > 3 3 # O @ o < P o O * O O * > ",
"Z C d d < 0 e 0 0 e 0 # X & = g G L g Y Z } R B 6 q > > * % 2 4 1 V ' ' B * > O # < 3 q 2 C # @ # < 3 - - 3 3 4 C > s d 4 d Z A ",
"< > * > * < < > > > > * # # @ # > < 2 Y # > < > + < > 1 3 3 > * * > > < 3 q i 2 * 2 < < * ] < > 3 3 q < * - > O > > < , > 3 4 3 ",
"< < < < 1 1 < > > 4 * O o @ X X # * 1 Y > 4 q q q 4 < < 3 < > 4 3 < > > 3 q 3 2 < * # * * ' # @ 3 h - * o O $ O O O O O & - 3 3 ",
"A A P Y A P P L 3 > < > * V 9 3 s e y N P 4.K.j.j.:.4 q C N Z Z X.^ G ] A W W B 4 4 C G q V 3 J 0 3 3 0 & q K V d V L g n s Z P ",
"' ' G ' Y ] { { N > d > < R P e 0 g K K [ >.H.K.K.<.3 3 ' ' ' q Z ^ ' B F i B 6 4 u G B N e g L d 3 d V V k J k J L I g s 3 A ^ ",
"X.:.:.>.d.f.1.<.L * d < * J J J P K [ R  .>.>.f.U.1.3 < d < 0 Z P P N B i H S 2 4 , i 4 3 L ~ ^ d d k K A V L K I ( I J 9 J ( { ",
":.f.f.s.z.K.j.j.L > k > - K I K  .K Y U |  .;.{ f.1.3 q k 3 P <.R Y 4 S O.O.B 5 B 5 $ O * < < 4 Z 3 N g 8 g P L J J L / C k L ;.",
":.X.:.:.f.z.h.j.~ < V > < K J K T K K Y [ | [ } <.( < 0 V 3 J R I K < F O.@.B , B , O . # # O < d 3 C s ; L ^ L g w z J V g L *.",
"f.o.d.s.h.l.j.X.d * d , 9 R K Y T Y R | | | ..o.} L < 3 s - e J I Y r G O.J.i + N 1 + + 4 4 < q < < < - : d g c z w z l L L ( ( ",
"H.f.<.h.f.h.:.~ X. .o.< < R  .Y D K P K P P Z A L K > 3 d * - C ]  .y F O.@.i 5 B 6 + # * > < < > - * * * * 3 0 z w w l L ~ ;.s.",
"P.I.I.P.z.P.s.L 4 2 q > < R ' C t y V e y V q Y < 9 * - < * $ r y r 6 G F O.S , 6 4 1 2 1 g C Z 4 # 0 g g f 0 q w l l x Z ^ ;.f.",
"R.Q.I.Q.R.Y.P.h.Z < Z 3 4 < * * * > 3 < < > , Y O # * * O > o O O O 7 N u F F 6 , , B B A y C K 0 * e ^ $.$.j < 8 v M I Z ~ X.g.",
"~.Q.R.I.Q.T.z.z.L < V 4 4 > O O - < d A 3 3 4 Y * > > * * * O O # 3 4 1 u r 6 6 1 4 6 B C C C Z A C Z Z I z s > 0 _ / / Z Z f.I.",
"/.^.Q.P.P.P.j.P.L < d 4 < U P C U ^ d 4 Z :.Z d Z ' 4 4 V > C y B 9 1 5 R T [ R [ Y N y V Y D V A A A g ^ / c 3 f #.;.` W X.d.P.",
"~.~.I.I.P.f.j.h.C 4 g 4 9 R K Y #.{ g 3 ( j.X.X.f.X.4 d A < K T T 4 < y 3.3.3.+.3.] R R U K { L q > d ( %.%.v < g #.^ ~ W X.k.I.",
"H.H.0.<.o.X.{ ~ d 3 q 3 9 I P R ( *.Z 3 ( f.f.j.f.:.3 N Z 3 Y R T 1 1 J 3.=.=.R R ' ' ^ J y Y K 3 N e ^ ( / h < s k Y d N ~ X.g.",
"4 3 < > > 3 2 4 N d 0 q q { R ] =.1.d 4 P s.f.<.X.^ 3 4 N 3 P P y 9 < y *.K r 1 1 1 1 4 3 < 4 < 4 C 4 < > > > 4 < < R 4 2 < 3 3 ",
"- * * 2 O < 3 3 N d 9 q e *.R [ I ( E.).v./ #.s.^ ' ' o.Z < P g 8 < 4 q D 1 4 < 1 1 < > > < & * - 3 6 2 4 < > < > > Y < = O > 3 ",
"< > - ' * 3 q q < 3 < 4 q { P C K E.G.B.'.7.L %.~ C N N 4 2 A q - 1 N q 1 > > $ 4 1 y B $ & # & & < q 4 4 < * 3 * > 4 * & * - - ",
"* X * ' * * * > > > $ 1 C D q 8 V (.B.t.S.9.c / ` ~ 4 4 N < P R y e 9 q < 3 4 > > + y C * > > > > > * * * > O 4 > > > > * > * * ",
"@ * O ' < q q d < > 1 P [ U q 0 J 6.Z.S.m.d k L ( ~ 4 N C 4 A C C J J e V 1 > y V 9 V A 9 k J 0 d d k Z Z P N 4 3 Z k f &   o   ",
"& 3 3 d d ~ U { V > K -.-.{ K Y { L ) Q d g c I ( ^ 4 d C d g Z A P K L J q < J U L e q L #.( z P ( ;.<.<.<.P 2 g ;.;.%.( h h = ",
"Z E L ( P P U { y > e R *.*.Y Y U I I g g z I $.` $.q d d 3 g Z P ( ^ I J - > q Z K V L I ( ( ( ' *.<.2.<.<.Y 3 e :.:._ ~ s d 3 ",
"~ ^ ^ ~ { { { K 9 3 3 V U #.K K ( #.I I I I #._ %./ 0 3 d 3 k ~ ( ;.%.z A R ' P e I U I ( *.*.o.} <.K.K.H.{ V q N ^ <.;.L g Z d ",
"^ ( ^ ( #.U V Z | o.o.e U #.K D *.*.( #.#.;.:._ %.X.d d k < ~ ^ ' s.%.L Z N N N V K U *.>.*.>.} ] } 4.4.4.R  .] o.C } :.X.^ ' ^ ",
"} X.X.` *.*.U J 4 > q V K #.U Y { <.h.( ~ ` :.s.h.X.3 0 d < m 6.^ a.h.s.( 3 > q U U I L K ( :.} } <.2.4.4.<.Z # q } f.<.2.0.' X.",
"X.<.o.X.R R *.R 9 > y U K R K Y { { L d P k _ %.a.Q 3 3 s 4 j ~ A ` $.%.%.3 * g I z L Z A P } U Y <.<.=.2.H.R > A H.R.K.K.o.] X.",
"K.H.o.} [ [ R #.9 > < 9 9 9 < > < < - < ' * : 3 3 - * - N ^ 4 3 < 0 3 3 - * O - * # - 9 C * < < > 1 4 < V X.' > C K.K.K.f.' ' P ",
"P.K.X.{  .| *.R < # * # - # # O # * # * ' o * # # . * * 3 > 3 < = > * o # * * o o o o 9 A o o . . . O O < r B $ B 3.3.2.3.P m g ",
"D D L / P <.=.U 9 # 8 J U R C C K K L d A 3 ~ c h O + < ) X.h.l._ ~ d 4 g - # 0 l 0 0 q N & * - E Z N C , < V > P L.H.<.:.L n s ",
"P A d s g R U L < * e *.*.U Y K Z z k s 8 k / ^ / 4 > 3 :.P.c.!.c.a.h h 0 @ # z U I J 0 0 0 Z (.'._.k.~ 3 > Z > K K.H.<.{ c 8 - ",
"* O % O * > > O * # J { ( K V e 0 0 q q k c ~ ( L 4 > 3 :.s.s.z.W.` k a 4 < > C { P k f 3 p 7.G.t.i.M.- O $ < > < < < 3 < < * # ",
"- 3 > , > 2 < > # # k *.I J f f r C J V B V V C q 8 * 4 ;.X.P P f.f.L 0 9 < > g I ^ g 0 s = b Z.i.B.q.< * > > > > 4 < 3 3 < 3 3 ",
"` ` [ ] X.o.f.<.d > k / 0 - & @ * 3 3 < < < 1 3 *   X > g d C B q N N L ( 4 > I *.#.L A l c p 6.N.e.E L 3 < ~ < K U.:.:.#./ ~ $.",
"X.X.7.o.f.H.f.k.L > k f < > O * - - < > * # * d ^ 3 > * * # V N o O > 4 U q > [ <.;.P K v v f w d Z V P N N C > ^ U.1.1.:.I L ( ",
"( s.0.] f.f.P.P.E 3 k 3 < s 0 3 0 e e 9 0 < - 4 Z * * * e e Z C e Z 4 2 V 4 - ( 1.*.( ' I J z J I [ K ^ ' ' A > L U.U.j.s.I / L ",
"^ h.<.] j.Y.P.z.E < L q & j m f C ] Y Y C : = @ > 0 * < I I y d ( *.Z > N d > } x.U.*.^ #.*.K U { { U K < 3 A 3 P Y.x.1.( / ( V ",
"( X.] Y ` f.s.7.k > k 3 @ e d k I ( P I L 9 < < < 9 < - J U { :.<.<.^ < V d < ;.T.c.R K J #.U U *.=.>.>.q 4 Z 3 L x.1.I ( ( { ( ",
"P :.' A ( ) s.s.Z 3 k 3 1 | P 1.f.<.:.{ P V Z 3 * 0 - 1 I I / :.:.f.~ > Z N < 1.c.j.*.K J U K *.2.<.=.=.d 4 A 3 V #./ I ( ( ( ( "
};
