/* XPM */
static char *DALL__E_2023_02_24_21_16_09__1_1677273458[] = {
/* columns rows colors chars-per-pixel */
"64 64 118 2 ",
"   c #221D17",
".  c #251F18",
"X  c #262119",
"o  c #2A241D",
"O  c #2F2820",
"+  c #342C24",
"@  c #372F28",
"#  c #373027",
"$  c #383027",
"%  c #373028",
"&  c #3C342B",
"*  c #40372E",
"=  c #41392F",
"-  c #453C32",
";  c #493F34",
":  c #4B4136",
">  c #4D4439",
",  c #50463B",
"<  c #544A3E",
"1  c #574C40",
"2  c #594E42",
"3  c #5D5245",
"4  c #5F5448",
"5  c #605447",
"6  c #625649",
"7  c #65594B",
"8  c #695C4E",
"9  c #6B5F51",
"0  c #6E6153",
"q  c #726555",
"w  c #746758",
"e  c #766959",
"r  c #7A6C5D",
"t  c #7E705F",
"y  c #7D6F60",
"u  c #7E7061",
"i  c #837464",
"p  c #877867",
"a  c #887867",
"s  c #857768",
"d  c #877868",
"f  c #8B7C6B",
"g  c #907F6E",
"h  c #E17650",
"j  c #63D45B",
"k  c #8F806F",
"l  c #90806E",
"z  c #8F8170",
"x  c #938473",
"c  c #988775",
"v  c #978877",
"b  c #998977",
"n  c #968979",
"m  c #9C8C7B",
"M  c #9F907E",
"N  c #A08F7D",
"B  c #A1917E",
"V  c #EDF67C",
"C  c #554EEB",
"Z  c #56FAE4",
"A  c #9E9080",
"S  c #A49482",
"D  c #A89784",
"F  c #A79886",
"G  c #A99986",
"H  c #A1918E",
"J  c #A79A8B",
"K  c #AC9C8A",
"L  c #B09783",
"P  c #B09F8D",
"I  c #A8A387",
"U  c #AFA08E",
"Y  c #B1A18E",
"T  c #B9AB8F",
"R  c #A9A996",
"E  c #B5A592",
"W  c #B8A794",
"Q  c #B7A896",
"!  c #B9A996",
"~  c #BCAC9B",
"^  c #BFB09E",
"/  c #BEB1A2",
"(  c #C0AF9C",
")  c #C1B19E",
"_  c #C4B4A3",
"`  c #C8B7A4",
"'  c #C7B8A6",
"]  c #C9B9A6",
"[  c #C7B9A8",
"{  c #CCBCAB",
"}  c #D1BFA1",
"|  c #CFC0AF",
" . c #D0C1AF",
".. c #CFC1B1",
"X. c #D3C4B3",
"o. c #D6C8B7",
"O. c #D8C9B7",
"+. c #D4C7B8",
"@. c #D7C9B8",
"#. c #DACCBC",
"$. c #DDD0BF",
"%. c #DED1C1",
"&. c #E2D5C5",
"*. c #E4D7C8",
"=. c #E6D9CA",
"-. c #E9DDCE",
";. c #EADFD1",
":. c #EDE2D5",
">. c #EFE5D8",
",. c #F1E5D7",
"<. c #F0E6DA",
"1. c #F2E9DD",
"2. c #F5EDE2",
"3. c #F8F1E7",
"4. c #F7F0E8",
"5. c #F9F4EC",
"6. c #FBF6F1",
"7. c #FCF8F4",
/* pixels */
"q q q q q 0 0 q i f s f f f a f f d d k k d 0 t t r r r t i r r t t i r w q w w q w w w w w 0 0 0 0 9 0 r q 7 0 7 6 6 7 9 6 7 6 ",
"i r r r r e e e a K E Q ~ ~ ~ ! Q E Y Y Y b e t r r r t i i t r i r i r r q w e w r t t t r r e e e r r t q 0 0 0 8 7 8 7 7 7 6 ",
"x x S b l c c f f x x S m n E K m M B x G S v F K S S I F F U Y B B F D S S B b m m b D S x m D v x B S v x m b v x x s d f f i ",
": : 8 3 - > < : - & & - & % 3 < $ - : & 2 3 < u s 7 0 s 0 6 d s 6 7 i q 6 r w 3 8 w < 0 9 : 3 q , : 0 6 > 3 0 < 1 9 3 > < 0 3 > ",
"+ o $ @ o o + o o o o o O O + @ o O o X o o o & & X + & + o & & o O & + o % & o + # o o + X o + X X o o X o + X o + o   o # o   ",
"< < < > > > > > > : = & : : : : : : & + $ & & & & & & & = - = = - - ; : > > > > : - & & & = & & & $ + # & = & = = = = & $ $ # # ",
"r r w q q q q q 8 8 3 2 e u u u t r 5 - > < < < 1 < 1 1 3 3 3 3 6 7 8 9 0 q q 0 8 6 3 3 7 5 3 3 3 < > , < 3 3 3 < < < , , > : : ",
") ) ~ E Y E Y Y Y Y F M ^ [ ' _ ) _ m t x b m S S S M B K U U U P E Y Y E W E Y K S v B Y Y K K G b k c B B B B B B b c x l f a ",
"-.:.-.*.&.$.&.%.#.#.O.{ { O.X.X.+.@.! K X.O.#.&.%.%.#.%.:.1.1.1.1.1.,.,.>.:.:.;.=.&. . .&.&.&.&.$. .{ O.#.$.$.#.#.#.@.O.X. .{ ' ",
"E Q ! E E E Q Q E T P S N m m N m S m B ~ _ ' { { { { | #.#.%.#.%.%.%.%.#.#.#.#.+.X.) ~ _ ' [ [ ` ( ( _ { { ' ' ' ` ` ` ) ~ ! E ",
"l x x g f g l g f f a i f g g c x x a i l b m m m M m M S S S S S S A M M m m m b x k l x x x x l x f a f f f g l k f a i i i r ",
"G F D B m N m m m b g x K ! ! ~ ! Q m i k x x m n m m m M m B m m m m b v v x x k d i k m b x l x g i i s a a s i i r r w q 0 q ",
"&.*.&.#.O.O.O.O.O.X.{ ( { X.+.+.X.+.) ! | o.#.#.#.#.%.%.=.-.=.=.=.=.&.%.&.%.%.#.O. .) { #.o.X.X. .' ` {  . .{ { ' ) ) ( ( ( W W ",
"s f f s s s s s i i s x x x v m x x z a f x x n m m A S J G G J J K J S F J S A M m v S K K G F S B S N n x x x x x x x l l g f ",
"> % # % & $ @ @ @ o ; r 0 3 q q 6 7 r 6 & & > < 1 1 < < > , 3 3 > & & & % & & % + @ 3 7 6 8 q 7 3 6 9 ; + $ # + @ + + O + & & @ ",
"u 3 3 7 7 7 7 7 7 5 7 i y r a s r u i 7 < 9 u s s f a u r e l c 0 1 3 3 4 4 3 1 : : 8 q 7 7 q 7 5 q r < > < , , > > - * - 5 7 ; ",
"S f B K P P P K G F B i i F S f G D e 0 f S Y W ~ ^ ^ ! Y M E ~ l m G G K F D m l r 8 w f z s d f r 8 0 r i a f f a i r q l x 8 ",
"! U X.o.O.@.@.O.o.X.' S Y #. .! #.@.m m )  .@.#.%.&.&.$.o.) { | ! o.$.&.&.&.#.{ ) G d x ' { S ~ ) l i g B G Y T W W W Y N Y Y b ",
"_ ^ &.*.=.=.=.=.&.%.o.~ { &.&.#.&.*._ ~ O.&.=.-.:.:.:.:.=.| o.#.| =.:.,.<.,.-.#. .) S ! =.&.{ %.&.T c B T ! ) ` ] { { ] W ) ) E ",
"[ ! | X.+.O.+.+.X.X.{ Y T ~ ( ~ ~ ~ Y E { +.@.#.%.%.&.&.O.] #.$.| %.=.-.-.=.&.O. .) K ~ { { [ { ` E B P ~ ) ' {  . . .{ W ) ` W ",
" .~ ^ / ) ) _ ) ) ~ E Y { +.X.+.X.+.) S P Y W ~ ^ ^ ^ ^ ! ~ #.$._ _ _ ' _ ) ~ W W F B T ~ ~ ! ! ! G g c N D K K P P T Y P ` ` F ",
"#.$.=.*.=.=.=.=.&.$.@.X.*.:.:.:.:.:.$.{ +.#.#.&.*.&.%.%.%.$.=.=.&.%.&.=.&.%.@.+. .` ~ +.&.%.%.%.*.{ P P ! ( _ ) _ ' ` ' {  .{ ` ",
") _ X.o.#.#.#.o.+.X.{ [ =.1.,.1.1.1.%.' +.#.$.&.*.-.-.=.*.$.#.$.$.=.;.:.:.-.*.$.@.X.` -.2.2.2.2.1.%.~ _ |  .X.o.O.O.#.#.X.{ {  .",
"a r i a f f l f k f i x =.2.1.1.1.2. .a a l l x v m m m x x b m l l v M m m b x x a x =.6.4.4.4.3.O.i r i a a f f a f a f l g a ",
"r r m Y ~ ~ ~ ( ~ ^ E Q ;.2.1.2.1.3.#.F Y ~ ~ ~ ^ ^ ^ ! K a i i i B E Y Y U K K F x S :.7.7.6.4.5.$.k a x x c x x x f r q w 8 7 ",
"x m W ] #.:.,.,.,.,.;.%.:.1.1.2.1.1.&.#.;.,.,.1.1.:.=.#.| K m b D ' O.-.,.,.:.:.;.#.X.2.6.6.6.5.5.=.` o.$.&.&.&.$.{ Q S s r r a ",
"r q f P ' @.:.1.>.>.;.&.,.2.2.2.2.2.=.&.:.1.2.1.1.=.o.] U k x x l E { +.-.2.2.1.>.=.#.2.4.4.4.2.3.-.X.&.;.:.,.=.X.~ K x i i r i ",
"& + @ 5 m ' %.,.2.2.>.=.1.4.5.5.6.5.:.&.1.2.1.1.;.#.! t - & - - & < x _ #.:.2.2.2.=.#.>.2.>.2.2.2.-.o.=.;.:.-.+.) m 6 & + * $ + ",
"- * @ $ > c X.=.1.2.>.=.2.5.5.6.6.5.:.=.1.2.3.:.*.E 3 + + & & & & O & r [ %.>.2.2.=.%.2.2.1.2.1.2.;.#.&.;.;.&. .l - X X o O O . ",
"5 3 3 < - 2 ! &.>.2.>.;.2.5.5.6.6.5.:.=.1.2.1.:...7 % : 1 2 3 3 2 < - & s o.=.1.1.=.#.>.1.>.1.1.2.:.#.=.-.*.$.F - O * - = - - = ",
"a i e 8 6 < x &.;.2.>.;.2.5.5.5.6.6.:.-.1.2.1.;.A : < 6 0 r u i e 8 3 > 1 ~ =.,.2.*.%.>.>.>.>.1.1.:.$.&.=.$. .8 & - > < 5 5 5 2 ",
"F B f i r 8 w X.:.1.,.;.2.5.5.5.6.6.:.-.1.1.1.#.w 1 q r i n D S z i r 0 < n *.:.1.&.%.1.1.>.1.1.2.:.#.=.$.$.F : > 5 6 0 i a i 0 ",
"K S c c i q 9 ' ;.>.1.;.2.5.5.6.7.5.:.-.2.1.1.{ 7 6 r g m S Y K M M a w 3 u $.:.1.=.#.1.1.>.>.1.2.;.+.&.%.@.f ; 1 7 r s g b g i ",
"N b m b g i r ( %.%.%.@.1.4.4.5.6.6.-.+.*.*.=._ q w i g m x N m b n f t 8 i o.&.-.%.o.1.1.>.,.>.2.%.{ #.#.X.s < 7 q i s i f i r ",
"P E E E Y S m ( { { _ ! =.2.2.6.7.6.%.E _ { X._ c b P Q Q E E ! ! ! W F k m {  .{ ~ ~ :.,.>.1.>.1.X.S E ~ _ m r f m B B N b c c ",
"r i y i y e r S E Y S F -.2.2.5.6.5.o.b S F Y F i y f g x x x c x x z f t x ^ ) ~ F G ;.1.>.>.>.1.{ f S T E b w w r r r r r w w ",
"; , ; , > ; 1 A ) ~ E E -.2.1.2.3.3.X.S F E ~ S 1 ; , 1 < < < < < < , , > q E ! E n F ;.>.>.>.:.:.{ a l B F e = & * * * & & & & ",
"e s i i i w 2 G X.{ [ { =.>.;.>.:.>.#.^ _ _  .G 1 7 q q e r 9 q r q q q < 8 E _ ! U ~ %.%.%.%.%.%.{ B m D K 8 = , > , < > ; > > ",
"P ] [ ( _ K 9 ! ;.&.#.#.;.,.:.>.1.>.#...#.#.=.~ 9 m ~ E ) ( S W _ ! ! Q i e [ %.+.{ ..:.:.;.-.=.:.#.~ ) ' ` r q m x m B l i m m ",
"W X.+.{ X.! w ^ ,.*.&.#.;.>.>.>.:.:.$.X.&.*.>._ q G X.{ O.X.E { #.X.X. .f i @.>.;.+.+.1.1.1.1.<.1.&.] o.$.O.i s ! P ! ( G m Q ~ ",
"! O.#.{ X.! w / :.*.%.$.;.,.:.<.1.:.$.X.&.=.,._ w K X.{ #.#.! { &.+.X.X.x i #.>.:.o.+.1.2.2.1.<.1.&.{ @.#.O.i a ! Q ( ` P N ~ ( ",
"~ %.%.+.O.~ w / <.*.%.#.;.1.>.<.>.1.#.+.*.=.,._ w E +.+.&.$.! X.&.@.O.O.x s #.1.:.X.+.1.2.2.2.2.2.&.{ @.#.O.i a ( ! ) ` P S _ _ ",
"~ O.#.{ X.! e _ :.*.%.%.<.<.<.<.>.>.#.X.&.=.,._ w E +.+.&.#.~ +.*.#.#.O.x s #.1.:.#.@.2.2.4.2.2.2.&.{ @.$.O.i f ( ( ` ] P S _ ` ",
"A E E K Y A w / ,.*.%.%.:.<.<.<.,.1.#.+.*.=.1._ w m E E ~ ~ F Q _ Q ~ Q s s #.1.:.#.@.2.4.2.2.2.2.%.` O.#.X.i r B N S G m x S F ",
"U ' [ / ' U w _ <.*.%.#.;.<.<.<.<.<.#.X.&.=.,._ w F ^ ~ _ ) J ~ _ ! ~ ~ a a #.1.,.%.@.2.4.2.2.2.2.%.` O.#.X.i r S N F K m c S S ",
"_ %.%.+.%.~ w / ;.&.#.%.;.<.<.1.<.<.#.X.*.=.>._ r ! #.+.&.%.~ { &.{ X.+.x a %.2.,.&.#.2.4.3.4.4.2.#.` +.%.O.i a _ ! _ { E K [ ' ",
"~ %.%.{ %.~ y ~ ;.%.#.+.;.;.;.;.;.;.O.{ %.&.;.~ w ! #.+.&.%.! X.&.{ X.{ f a #.>.:.@.o.,.2.1.1.1.,.O.) X.#.{ i f ( ( _ { E K { ' ",
"~ %.%.+.+.~ y ~ =.%.#.#.;.<.<.;.>.<.@.{ #.&.-.~ w ! #.+.%.#.! X.&.{ X.X.f a @.:.*. .X.:.1.1.1.>.,.+._ X.O.{ y f ( ~ ' { E K [ ' ",
"/ %.%.{ #.~ e / ;.*.%.#.;.<.<.<.<.>.#.+.*.=.,.( e ! %.+.&.%.! X.&...X.X.z a #.>.-.o.+.1.2.2.2.1.2.#.| %.%.X.r f _ ~ '  .E K { ' ",
"A U Q E E A w ~ ;.*.&.%.:.<.;.,.<.>.#.{ *.*.:.~ w D _ ) { ' J ) { ~ ) ) s s #.,.:.#.#.2.2.2.2.1.1.$.X.&.&.X.t s W Y ! _ K F ~ ! ",
"A Q Q J U A 0 / ;.*.&.%.;.<.<.<.;.>.#.X.&.*.;.! 9 c S S K G n S K S S S r d +.,.-.X.+.1.2.2.1.1.1.$.X.&.&. .r q l f x x a i f f ",
"! +.%.{ +.Q w ~ =.&.#.%.;.<.<.<.>.>.#.X.&.*.;.! w U { [ +.{ K ' +.[ { ' d s +.:.=.| ..1.2.2.1.1.1.#.X.%.$.| r i Y G E ! S m P K ",
"~ %.%.{ +.! w ~ &.O.X.X.&.*.=.=.=.=.X.{ &.&.;.Q q Q O.X.*.#.! X.&.o.#.o.f i X.;.*.{ X.>.1.1.1.>.:.o.] O.#.] e f _ ) { X.E F _ ) ",
"! +.%.{ { Q y ~ %.X.[ ! ) ' _ ' { _ E ) @.&.;.Q q E X.+.&.O.! X.&.o.#.X.f i X.=.%.[ ^ ..X.X.X.| ' ~ ) X.X.` r a ) ( ] { U F ) ( ",
"! +.#.{ +.E y ~ @.{ P K +.{ { %.%.#.E m { #.*.E q E X.X.&.#.! +.&.o.+.X.f d { +.{ m m | X.X. .] _ F S ) ' ( w f _ ( [ { Y S _ ^ ",
"A ~ ~ ! ~ S s { &.+.H U #.#.%.&.%.%.~ f _ &.-.^ w J [ [ O.{ E { $.X.X.| f v +.#./ i m &.=.=.&.$.#.E a Y ) ) r a ( ( ' { K S ) ~ ",
"r i a a s i m { X.~ x m S F J K F F m f E X.%.{ f k S D U K B K E K Y F f Y &.$.) x S ~ ~ ~ ~ W E B f B ) ` l r c b N S g f b n ",
"2 6 7 8 7 5 q r q 6 1 2 7 7 7 7 7 6 6 1 4 w i s q 0 e r e e r r e r r w r l x k r 9 r w w w q q q 9 7 8 i f i 5 5 7 7 7 7 5 5 3 ",
"7 q r r 0 7 6 9 , * * 9 S F F S S F i - * - 3 q 3 6 q q w w w q 0 q 0 8 5 7 6 - = & 5 r w w q 9 9 3 $ + $ > > ; , 1 2 2 1 1 1 1 ",
"D W ! Y S N m G s 9 q S *.*.*.*.*.-.! 0 0 q A ! v x m F G F D B B M x f f F S q 8 6 c ] ` _ ) ) ) b , > < i q 3 7 0 e r e w q 9 ",
"` { X.{ ' ) P S b x l Q -.-.-.;.;.,.' f m m Y ! ~ _ { X.+.X.|  .| { ` ) ~ ) ~ N b l ( -.=.*.&.#.$.W e e r l l f x N S S S N N b ",
"~ ~ ( ` ` ) Y D B B c ~ *.*.*.-.=.-.{ l S E ~ ( '  .X.O.o.X.X.+.X.X. .{ { ` ) W Y B _ -.=.*.&.$.#.^ a k g g g b S G P P L K G D ",
"_ ` { X.O.X.X.{ { ) ~ X.%.#.&.#.&.&.@.~ _ X.#.#.#.#.#.$.$.#.#.o.o.o.+.X.X.O.O. ._ ~  .#.O.X.O.X.o.' Y K P G P L P E Q W R I L H ",
"X.@.&.*.=.=.*.&.O.] +.%.&.&.&.*.&.&.*.#.X.#.-.;.;.=.=.=.%.$.$.#.O.X.X.X.X.X.o.' W ! ) ( ! W ! W W ! W T ( ` ] ] ] ] } V Z j h C "
};
