/* XPM */
static char *cathedral_facade1677255752[] = {
/* columns rows colors chars-per-pixel */
"64 64 72 1 ",
"  c #161310",
". c #191613",
"X c #1D1916",
"o c #221D19",
"O c #26211C",
"+ c #29241E",
"@ c #2B2621",
"# c #2E2822",
"$ c #322C26",
"% c #362F28",
"& c #373029",
"* c #3A332C",
"= c #443C34",
"- c #483F36",
"; c #494037",
": c #4C433A",
"> c #51473D",
", c #53493E",
"< c #564B41",
"1 c #594E43",
"2 c #5D5146",
"3 c #5F5348",
"4 c #615649",
"5 c #66594C",
"6 c #685B4F",
"7 c #6B5E51",
"8 c #6E6153",
"9 c #716355",
"0 c #766758",
"q c #77685A",
"w c #7B6C5D",
"e c #7F6F60",
"r c #7F7060",
"t c #80705F",
"y c #837363",
"u c #887767",
"i c #8A7867",
"p c #8D7B6A",
"a c #917F6E",
"s c #92806F",
"d c #958473",
"f c #988776",
"g c #998877",
"h c #978878",
"j c #9C8C7C",
"k c #A0907F",
"l c #9E8F80",
"z c #9F9080",
"x c #A39484",
"c c #A59788",
"v c #A7998A",
"b c #A99C8D",
"n c #AC9F90",
"m c #AEA08F",
"M c #AEA294",
"N c #B0A496",
"B c #B2A699",
"V c #B5AA9D",
"C c #BAAD9E",
"Z c #B7ACA0",
"A c #B9AEA1",
"S c #BCB1A5",
"D c #BEB5A9",
"F c #C1B7AB",
"G c #C2B9AE",
"H c #C5BDB2",
"J c #C8BFB5",
"K c #C9C1B7",
"L c #CBC3BA",
"P c #CFC8BF",
"I c #CFC8C0",
"U c #D1CAC2",
/* pixels */
"Nc2,,,-,,,:,,11114,12112444421>bNc1,:<-><<:<<<1213<11132444422,b",
"6:+++$++++$+#+o&$#$++o$+++ooOo.94:@+#$@Oo@#@@@o%$#$@@o#+++oooo.0",
"*OO+o$$***=&$#&&$$#$$$&&=*####@+$OO@o#$*%**%$#$%$$#$$$**=*$$##++",
";#+:=,1>,1,,,:>:=--:>:,,<<:>,:+=*#+:=<1:<<<<::::=-;;::><1<>>,,#;",
"7:&2249800009990994779q0qw95q7*35:&1148790qw9980885780w0wt9509=2",
"94&+ooo+#+#@#$$&%%&%%$%$$&XO#+>083&@ooo##O$##%$%%%*&%%$$$$oO#+,9",
"%o. =**o+ooo.ooo.XXXX..X+o&&$o##@X. ***X@X.XXXoXXXXX..XXOo&*$o#$",
":1;%967$$$$&$$$$%%%%$##$#$6642ww=1;&077#$$%%$%%%$$%%$@##$$6642tw",
"tpt3jgg--->---::;:-:;---=,dhdyjl0uq2hhh;-;::-:-;;;;;:;;;-,fgfikk",
"acdybbb5455565454444444438vcclvMschevcb5345554543454444549bvmgmm",
"dbxaNpbtttttttttwqwwwwww0wvjMnBZhncdMpnqwwreeeeewqwwwtqtttvkmbCC",
"jCNxCfNadgggggddddfffdddspMhVBZSjBMlVfBpfhghfgdgdffffddfsamkCCCF",
"kCNvCFCgbcbbcccccccvcvzcxjASZZDDzABcZSZhvcvvcccccccccccvxkCCCVDF",
"xFCbNBNgbbNmbbmbnbbbvbcMvjMNMZSDzZZvnBMhbbMnvvncvvvbvbcbvkNCNCSF",
"jNNbbvbjkkccllxjjjljxjjljzvbvzzbjMnvccchjlzlljljjjjjzljkkkbmbxxb",
"jcx86579afggfgfghudhjjhdd2577pcchcz75558adhhhhhhhydhjjhds2578svb",
"1,,2yyy1<223323224423322<3ppy<22:<:2yry<<223233333433332<3ppu<34",
"akgygvfyjccbbbccnvcbcccxhyhnduzvpzhrhcdyfxvvvvnvvvnvvvvxhuhbapxn",
"pkfkatjfudhjjjjjjlxllllauch8jzhjyzszswjdyshhjlhjjljlhjjhuch8jchx",
"084vitjgaxccccbnnNNbvbbvlzplphah862cywhhdzvvvvvnnMNvnnbvlzplafag",
"BFBitapyNASSZBZBBnZZDDDSBeyp0uDDVSBuedurMZSSZBZBMMZNSDDSVypawuSF",
"FFCf7w5aBSSBnu62217anZDDBu896lDDADBh6q3sVSSVny51217aMZSDBp797jSH",
"CFVw554tBABh67eeeee72lNAN8517aSHAHBq533rBZBd50eeeee83lBSN9527pSH",
"FGBtyay9nbpty61-=<<6r7anB8shauSHSDVqydr8Mbpry5<:-:<6r9sMN9ahapAF",
"AGCafaaixgiw<=2764<*<eqlxyaphcSDSDBuhpduzhy0<=37652*<eejcyaphcDG",
"AGAaBFxijat>ealclxla9-euzunDNnSDSDZdVSzplpe<0dzvzxla7-eulynDnnDG",
"FGAxHGFyja1pcnNZNBBBva<dluSHDBDDSDSzJDZuld2pcMBZNNNnca<ajuAJDBSH",
"CFFNHHFybtabBZASZSSAZNaycpDJHZDHSDSnLJDuveabBZZSZDSZZNaecpSJHZDG",
"AHFNJJFanpnVAFFFADDDDZnyMdDLHSDHADDMJJDdnunVSDDDADDDSZnyngGJHSGH",
"xNmxLJFaljVAFFGGSGGDDSBlxdHLHflzzMnzLJDullVSDDDDSDHDFSVjcaGLHjjl",
"bFBNLLF><6xcnVZSSZZZNBn7<:HLHSDDbAZbLLD<16zvnZZSSZZZNNn81<HLJSFG",
"CGFCLLH25qCFAJJJIIJHSDSq74HLKDKKADDZLKD140VSSJJLIILHSFAq73HLJGHJ",
"SKGSLKDhmrBDDKLLLILKDDSuMlDKKDDKSDDDIKDhcrZDDKLLILLLDDDrZzDIDDIL",
"DKGSPKHdzhZDDKIIILILDDSlzhDIDDIKAIDAIDDdllZDDKLILILLDDDlzlDLLDLL",
"SKHSLKHmAzSDDLIIIIIIDKDzDnDKIDKKDIDSKKDnZlZDDLLIIIILDHSlSnDLIDDI",
"SKHSLKDMDMSDDLIIIIUUDDDvDMDIJDKKSDDDIIDMGvDDDLIIIIIIDDDcSnDLDDLL",
"kmbxLKKphdzvzZZZAZZZbMMhprDIDllzlMvlKDKulplclBZZZZZZvBnlsyDLKlll",
"VGGVLLDNSzBBZVBZBZZZAZNzDBDLKSDDZDDBKKDMZlBBZBBZBZZZZZZlDZDIIZDD",
"FKKALKKBDBDDDKKKDKHHKDDNDBDIKADKSKIAKIIMDBDGHHHKDKHHHDHBHVDIKSKK",
"AKKSLKDBDVDKKHKKSHHDKDKVDVDILDKDDDDAKKDNDBGHKHKLDHDHDKKBDVDILDHJ",
"FKJFKJJNDBDHKDDKSHDKHHHBDZHILSDJDKDDLHHNDNDHHHHHDDDHHHHBHVHLLDKH",
"FLKFKKGCDBHHKLKKDHKDHKHVDNDILSJKDIIDKKHBDNDHHLHKDHHHHHKBDBHILDHK",
"FKKFLKJNDBKKDKLLSKHHKHKVDNDIISDDDDDDKKDBDZHHHHKLDKHHKKKVDBDLLDHH",
"fkkfKKGisszzzbzMzNMMMMMlhyHLKphlhllhKKHrrrlxllcczMMMMMMjdyKLLshj",
"CHGCKKHCHZDDSSZZZZAZMVVMDBHILAKKZDDZKDDZKZSDZZZZZZZZNCVmGNGPLSLK",
"CJHSKKGCKDHKDHDHHHKHDIKDKNDILSKKDDDZKLDZHDHKHHGHHKKDFKKDJNHLKDLL",
"SJHCJJGCHDHLHDKHHKKHDKHDDZDLKSKLSDKSDDDBHDHKDDHGJKLHSKKFHVGLLFLL",
"CHHSHHGCHDKKHHDHHKKDDHKAJZDLLDLKSDDDKKKZHDHHGHHHDKKHFJKSHBGLLGLL",
"SJGSKHGCGFHKFGKHHKGGSKKSGBHLLDKKAIDZDIDBDSDJDHHHKJJDDKJSJVJILDLL",
"CJGSKKGBGSGKFGKHHHKKSKKVGBGLLDKKADDAIDDBHDHHSDHHHJDKDJJVDNDKLDLL",
"jvxkKGGsfvBAmxccbbbbxcvddrGLKshdllzlDDDphnBZMzcczvnnzbzdhrDILdjj",
"CJGCGGFmFkNNBVCCBSSFDDFmKVGLLSKKADDZIDDnSlMMBVVVVSSDDDDMJVDILDKK",
"CJHAHGGmFBGHGGGGSGHHGKGVKBGLLDKKZDDSDDDMSMDHGGGGSDDKJDDVJVHLLFLL",
"SGGAHGGmSNGGKKHKSKGHHGKCKNDLLFLKSDDSJDDBSMHDHGHGSJKDDLJVJBFKLDLL",
"SHGAHGGmSBGGGKHGSGKGKKKVKNGKKDLKSDDSJDDnSNDHGHGHSDIDLJDVJBGLLFLJ",
"CJHSHFFNSNGGKGHKSGHKGGKCKVGLKDKKSIDSDDDnSNHDHHHHSDJJJJLZJVFKLFJL",
"CJGCJFFmSmGGGJHHSGGGGKKAHVFKGFHKZDDADDDMSNFHGJHHFHHFHJLCJBFJJFJL",
"kcxdNBVifkMbbbbbgccbvmmjddVBSssdzvzdZVZrdjbbbbbbgxccxbmgfdCBSadf",
"CHGvwttbSbBCBCSSSDFDSFFNGc335NGGSJDbqeebCbNCNCSSFFFFFFFCGc445NGG",
"CHFvjxxbFSGGFJKLKKKLGKKCGmxxkmGGSDDnhllnFFGHGHLKJGJLFHKCGNxckNGH",
"AHSsiiixFCGHGKLKKKKKSLKDFxfspbHFZHSpyyuzFSGHGJKKJJJKSKKFGkssacGF",
"AGSNVCNnSFHHGGKGKKGGFKLDDVDGGCGHSGZBVZBnSFHHFGJHHHHJFKLFGCGFGCGG",
"CFCNmNNNVAFHFFGGGGGHSKKCSMSCSNDGVGZMMMMMASFFFGFGFGGHFJHCGCSFFmFG",
"VFCsfgscNCFFSFFFFFFDCGGCCffdjjSFSFVpdhdcNCCFFFFFFFFFCHFCCgdfkjSG"
};
